<svg xmlns="http://www.w3.org/2000/svg" viewBox="0 0 800 450" width="800" height="450">
  <defs>
    <linearGradient id="bg" x1="0" y1="0" x2="800" y2="450" gradientUnits="userSpaceOnUse">
      <stop offset="0%" stop-color="#060818"/><stop offset="100%" stop-color="#030410"/>
    </linearGradient>
    <radialGradient id="glow" cx="400" cy="225" r="300" gradientUnits="userSpaceOnUse">
      <stop offset="0%" stop-color="#6366f1" stop-opacity="0.25"/><stop offset="100%" stop-color="#6366f1" stop-opacity="0"/>
    </radialGradient>
  </defs>
  <rect width="800" height="450" fill="url(#bg)"/>
  <rect width="800" height="450" fill="url(#glow)"/>
  <pattern id="g" width="50" height="50" patternUnits="userSpaceOnUse">
    <path d="M50 0L0 0L0 50" fill="none" stroke="#6366f1" stroke-opacity="0.05" stroke-width="1"/>
  </pattern>
  <rect width="800" height="450" fill="url(#g)"/>
  <!-- Pipeline stages as columns -->
  <!-- New Lead -->
  <rect x="60" y="80" width="110" height="40" rx="8" fill="#6366f1" fill-opacity="0.2" stroke="#6366f1" stroke-width="1.5" stroke-opacity="0.8"/>
  <text x="115" y="105" font-family="system-ui" font-size="12" font-weight="700" fill="#818cf8" text-anchor="middle">New Lead</text>
  <!-- Cards in column -->
  <rect x="65" y="130" width="100" height="55" rx="6" fill="#6366f1" fill-opacity="0.12" stroke="#6366f1" stroke-opacity="0.4" stroke-width="1"/>
  <rect x="70" y="137" width="60" height="6" rx="3" fill="#818cf8" fill-opacity="0.5"/>
  <rect x="70" y="149" width="45" height="5" rx="2" fill="#94a3b8" fill-opacity="0.3"/>
  <rect x="70" y="160" width="50" height="5" rx="2" fill="#94a3b8" fill-opacity="0.3"/>
  <rect x="65" y="195" width="100" height="55" rx="6" fill="#6366f1" fill-opacity="0.12" stroke="#6366f1" stroke-opacity="0.4" stroke-width="1"/>
  <rect x="70" y="202" width="55" height="6" rx="3" fill="#818cf8" fill-opacity="0.5"/>
  <rect x="70" y="214" width="40" height="5" rx="2" fill="#94a3b8" fill-opacity="0.3"/>
  <rect x="65" y="260" width="100" height="55" rx="6" fill="#6366f1" fill-opacity="0.12" stroke="#6366f1" stroke-opacity="0.4" stroke-width="1"/>
  <rect x="70" y="267" width="65" height="6" rx="3" fill="#818cf8" fill-opacity="0.5"/>
  <rect x="70" y="279" width="48" height="5" rx="2" fill="#94a3b8" fill-opacity="0.3"/>
  <!-- Arrow -->
  <text x="185" y="235" font-family="system-ui" font-size="20" fill="#6366f1" fill-opacity="0.6">→</text>
  <!-- Contacted -->
  <rect x="200" y="80" width="110" height="40" rx="8" fill="#8b5cf6" fill-opacity="0.2" stroke="#8b5cf6" stroke-width="1.5" stroke-opacity="0.8"/>
  <text x="255" y="105" font-family="system-ui" font-size="12" font-weight="700" fill="#a78bfa" text-anchor="middle">Contacted</text>
  <rect x="205" y="130" width="100" height="55" rx="6" fill="#8b5cf6" fill-opacity="0.1" stroke="#8b5cf6" stroke-opacity="0.4" stroke-width="1"/>
  <rect x="210" y="137" width="60" height="6" rx="3" fill="#a78bfa" fill-opacity="0.5"/>
  <rect x="210" y="149" width="45" height="5" rx="2" fill="#94a3b8" fill-opacity="0.3"/>
  <rect x="205" y="195" width="100" height="55" rx="6" fill="#8b5cf6" fill-opacity="0.1" stroke="#8b5cf6" stroke-opacity="0.4" stroke-width="1"/>
  <rect x="210" y="202" width="55" height="6" rx="3" fill="#a78bfa" fill-opacity="0.5"/>
  <!-- Arrow -->
  <text x="325" y="200" font-family="system-ui" font-size="20" fill="#8b5cf6" fill-opacity="0.6">→</text>
  <!-- Qualified -->
  <rect x="340" y="80" width="110" height="40" rx="8" fill="#06b6d4" fill-opacity="0.2" stroke="#06b6d4" stroke-width="1.5" stroke-opacity="0.8"/>
  <text x="395" y="105" font-family="system-ui" font-size="12" font-weight="700" fill="#38bdf8" text-anchor="middle">Qualified</text>
  <rect x="345" y="130" width="100" height="55" rx="6" fill="#06b6d4" fill-opacity="0.1" stroke="#06b6d4" stroke-opacity="0.4" stroke-width="1"/>
  <rect x="350" y="137" width="60" height="6" rx="3" fill="#38bdf8" fill-opacity="0.5"/>
  <rect x="350" y="149" width="50" height="5" rx="2" fill="#94a3b8" fill-opacity="0.3"/>
  <!-- Arrow -->
  <text x="465" y="200" font-family="system-ui" font-size="20" fill="#06b6d4" fill-opacity="0.6">→</text>
  <!-- Quote Sent -->
  <rect x="480" y="80" width="110" height="40" rx="8" fill="#f59e0b" fill-opacity="0.2" stroke="#f59e0b" stroke-width="1.5" stroke-opacity="0.8"/>
  <text x="535" y="105" font-family="system-ui" font-size="12" font-weight="700" fill="#fbbf24" text-anchor="middle">Quote Sent</text>
  <rect x="485" y="130" width="100" height="55" rx="6" fill="#f59e0b" fill-opacity="0.1" stroke="#f59e0b" stroke-opacity="0.4" stroke-width="1"/>
  <rect x="490" y="137" width="55" height="6" rx="3" fill="#fbbf24" fill-opacity="0.5"/>
  <rect x="490" y="149" width="42" height="5" rx="2" fill="#94a3b8" fill-opacity="0.3"/>
  <!-- Arrow -->
  <text x="605" y="200" font-family="system-ui" font-size="20" fill="#f59e0b" fill-opacity="0.6">→</text>
  <!-- Closed Won -->
  <rect x="620" y="80" width="110" height="40" rx="8" fill="#10b981" fill-opacity="0.2" stroke="#10b981" stroke-width="1.5" stroke-opacity="0.8"/>
  <text x="675" y="105" font-family="system-ui" font-size="12" font-weight="700" fill="#34d399" text-anchor="middle">Closed ✓</text>
  <rect x="625" y="130" width="100" height="55" rx="6" fill="#10b981" fill-opacity="0.15" stroke="#10b981" stroke-opacity="0.5" stroke-width="1"/>
  <text x="675" y="165" font-family="system-ui" font-size="22" font-weight="900" fill="#10b981" text-anchor="middle">$4,800</text>
  <!-- Total pipeline value -->
  <rect x="200" y="360" width="400" height="60" rx="12" fill="#6366f1" fill-opacity="0.08" stroke="#6366f1" stroke-opacity="0.3" stroke-width="1.5"/>
  <text x="400" y="385" font-family="system-ui" font-size="12" fill="#94a3b8" text-anchor="middle">Total Pipeline Value</text>
  <text x="400" y="408" font-family="system-ui" font-size="26" font-weight="900" fill="#818cf8" text-anchor="middle">$24,600</text>
  <rect x="0" y="0" width="800" height="4" fill="#6366f1"/>
  <rect x="30" y="30" width="120" height="32" rx="16" fill="#6366f1" fill-opacity="0.12" stroke="#6366f1" stroke-opacity="0.5" stroke-width="1.5"/>
  <text x="48" y="51" font-family="system-ui" font-size="13" font-weight="700" fill="#818cf8">CRM PIPELINE</text>
</svg>